<?xml version="1.0" encoding="utf-8"?>
<!-- Generator: Adobe Illustrator 18.1.0, SVG Export Plug-In . SVG Version: 6.00 Build 0)  -->
<svg version="1.1" id="Layer_1" xmlns="http://www.w3.org/2000/svg" xmlns:xlink="http://www.w3.org/1999/xlink" x="0px" y="0px"
	 viewBox="0 0 65 118.1" style="enable-background:new 0 0 65 118.1;" xml:space="preserve">
<g>
	<path d="M62.1,55.9v59.3H2.9V55.9H62.1 M65,53.1h-2.9H2.9H0v2.9v59.3v2.9h2.9h59.3H65v-2.9V55.9V53.1L65,53.1z"/>
	<path d="M10.5,81.9V62.3h7.7c6.1,0,10.4,3.9,10.4,9.8s-4.2,9.7-10.4,9.7H10.5z M24.3,72.1c0-3.5-2.1-6.1-6.1-6.1h-3.5v12.2h3.5
		C22.1,78.2,24.3,75.4,24.3,72.1z"/>
	<path d="M35.4,77.5l3.3-1.2v-8.4l-3.3-1.2V62l19.5,7.6v5.2l-19.5,7.5V77.5z M50.8,72.1l-8.4-3v6.1L50.8,72.1z"/>
	<path d="M24.3,108.8L15,96.1v12.7h-4.2V89.3h4.3l9,12.3V89.3h4.2v19.5H24.3z"/>
	<path d="M43.1,108.8V89.3h4.2v19.5H43.1z"/>
	<rect x="37.2" y="89.3" width="15.9" height="3.6"/>
	<rect x="37.2" y="105.2" width="15.9" height="3.6"/>
	<path d="M27.5,19.6V5.9L22,19.6h-1.8L14.6,5.9v13.7h-4.2V0h5.9l4.8,11.9L25.9,0h5.9v19.6H27.5z"/>
	<path d="M30.9,45.2H11.3V31.3H15v9.7h4.2v-9.5h3.7v9.5h4.4v-9.7h3.7V45.2z"/>
	<path d="M39.8,19.6V0h13.9v3.7h-9.7v4.2h9.5v3.7h-9.5V16h9.7v3.7H39.8z"/>
	<path d="M44.6,48.1v-16h-5.7v-3.7h15.7v3.7h-5.7v16H44.6z"/>
</g>
</svg>
